<svg width="28" height="26" viewBox="0 0 28 26" fill="none" xmlns="http://www.w3.org/2000/svg">
<path d="M14.1243 24.7289C21.0208 24.7289 26.6115 19.3961 26.6115 12.8179C26.6115 6.23969 21.0208 0.906982 14.1243 0.906982C7.22789 0.906982 1.63721 6.23969 1.63721 12.8179C1.63721 19.3961 7.22789 24.7289 14.1243 24.7289Z" stroke="#222222" stroke-width="1.45833" stroke-linecap="round" stroke-linejoin="round"/>
<path d="M18.0093 8.84769C17.758 8.4318 17.3928 8.08894 16.9529 7.85581C16.513 7.62268 16.0149 7.50805 15.5119 7.5242H12.737C12.001 7.5242 11.2952 7.80308 10.7748 8.29948C10.2544 8.79589 9.96204 9.46915 9.96204 10.1712C9.96204 10.8732 10.2544 11.5465 10.7748 12.0429C11.2952 12.5393 12.001 12.8181 12.737 12.8181H15.5119C16.2479 12.8181 16.9537 13.097 17.4741 13.5934C17.9945 14.0898 18.2868 14.7631 18.2868 15.4651C18.2868 16.1671 17.9945 16.8404 17.4741 17.3368C16.9537 17.8332 16.2479 18.1121 15.5119 18.1121H12.737C12.234 18.1282 11.7359 18.0136 11.296 17.7805C10.856 17.5473 10.4909 17.2045 10.2395 16.7886" stroke="#222222" stroke-width="1.45833" stroke-linecap="round" stroke-linejoin="round"/>
<path d="M14.1245 4.87671V7.52362M14.1245 18.1113V20.7582" stroke="#222222" stroke-width="1.45833" stroke-linecap="round" stroke-linejoin="round"/>
</svg>
