<svg width="26" height="25" viewBox="0 0 26 25" fill="none" xmlns="http://www.w3.org/2000/svg">
<path d="M3.69381 23.8184C5.33211 23.8184 6.66021 22.692 6.66021 21.3026C6.66021 19.9132 5.33211 18.7869 3.69381 18.7869C2.05552 18.7869 0.727417 19.9132 0.727417 21.3026C0.727417 22.692 2.05552 23.8184 3.69381 23.8184Z" stroke="#222222" stroke-width="1.45833" stroke-linecap="round" stroke-linejoin="round"/>
<path d="M20.009 23.8184C21.6473 23.8184 22.9754 22.692 22.9754 21.3026C22.9754 19.9132 21.6473 18.7869 20.009 18.7869C18.3707 18.7869 17.0426 19.9132 17.0426 21.3026C17.0426 22.692 18.3707 23.8184 20.009 23.8184Z" stroke="#222222" stroke-width="1.45833" stroke-linecap="round" stroke-linejoin="round"/>
<path d="M20.009 18.787H3.69381V1.17786H0.727417" stroke="#222222" stroke-width="1.45833" stroke-linecap="round" stroke-linejoin="round"/>
<path d="M3.69373 3.69312L24.4585 4.95085L22.9753 13.755H3.69373" stroke="#222222" stroke-width="1.45833" stroke-linecap="round" stroke-linejoin="round"/>
</svg>
