<svg width="26" height="25" viewBox="0 0 26 25" fill="none" xmlns="http://www.w3.org/2000/svg">
<path d="M11.7587 0.906982L24.0271 12.6109C24.3624 12.9686 24.5478 13.4315 24.5478 13.9114C24.5478 14.3912 24.3624 14.8542 24.0271 15.2118L15.8482 23.0144C15.4733 23.3343 14.988 23.5111 14.485 23.5111C13.9821 23.5111 13.4968 23.3343 13.1219 23.0144L0.853516 11.3105V6.10873C0.853516 4.72914 1.42799 3.40606 2.45055 2.43054C3.47311 1.45502 4.86 0.906982 6.30612 0.906982H11.7587Z" stroke="#222222" stroke-width="1.45833" stroke-linecap="round" stroke-linejoin="round"/>
<path d="M9.0322 11.3108C10.5379 11.3108 11.7585 10.1463 11.7585 8.70984C11.7585 7.27337 10.5379 6.10889 9.0322 6.10889C7.52651 6.10889 6.30591 7.27337 6.30591 8.70984C6.30591 10.1463 7.52651 11.3108 9.0322 11.3108Z" stroke="#222222" stroke-width="1.45833" stroke-linecap="round" stroke-linejoin="round"/>
</svg>
