<svg width="29" height="28" viewBox="0 0 29 28" fill="none" xmlns="http://www.w3.org/2000/svg">
<path d="M9.77405 14.4199L12.7476 17.2523L18.6946 11.5875" stroke="#222222" stroke-width="1.45833" stroke-linecap="round" stroke-linejoin="round"/>
<path d="M14.2343 1.67444C17.7071 4.60113 22.2397 6.12495 26.8717 5.92305C27.5461 8.10827 27.7524 10.4003 27.4785 12.663C27.2045 14.9257 26.4559 17.1129 25.277 19.0945C24.0982 21.0761 22.5131 22.8118 20.6161 24.1984C18.7191 25.585 16.5489 26.5942 14.2343 27.1661C11.9198 26.5942 9.7495 25.585 7.85251 24.1984C5.95551 22.8118 4.37048 21.0761 3.19162 19.0945C2.01275 17.1129 1.2641 14.9257 0.990155 12.663C0.716209 10.4003 0.922556 8.10827 1.59694 5.92305C6.22895 6.12495 10.7615 4.60113 14.2343 1.67444" stroke="#222222" stroke-width="1.45833" stroke-linecap="round" stroke-linejoin="round"/>
</svg>
