<svg width="189" height="84" viewBox="0 0 189 84" fill="none" xmlns="http://www.w3.org/2000/svg">
<path d="M22.6309 63.2022C19.284 63.2022 16.0946 62.1588 13.0628 60.0719C10.0703 57.9457 7.66838 55.1107 5.85713 51.5669C4.04588 48.0232 3.14026 44.2235 3.14026 40.1679C3.14026 35.7579 4.00651 31.8007 5.73901 28.2963C7.47151 24.7919 9.83401 22.0554 12.8265 20.0866C15.819 18.1179 19.1462 17.1335 22.8081 17.1335C24.8556 17.1335 27.1984 17.6847 29.8365 18.7872C32.514 19.8897 34.3843 21.1497 35.4474 22.5672L36.3334 18.1376H37.3374V31.3085H36.0971C36.0971 29.261 35.4671 27.2332 34.2071 25.2251C32.9865 23.2169 31.2934 21.5632 29.1278 20.2638C26.9621 18.9644 24.5799 18.3147 21.9812 18.3147C19.3037 18.3147 16.9215 19.2597 14.8346 21.1497C12.7478 23.0397 11.1137 25.6385 9.93245 28.946C8.7512 32.2141 8.16057 35.876 8.16057 39.9316C8.16057 43.8297 8.73151 47.4719 9.87338 50.8582C11.0546 54.2051 12.8265 56.9022 15.189 58.9497C17.5909 60.9972 20.5046 62.021 23.9303 62.021C26.4503 62.021 28.7537 61.2926 30.8406 59.8357C32.9275 58.3788 34.4828 56.4888 35.5065 54.1657C35.6246 53.8901 35.8609 53.0829 36.2153 51.7441C36.4909 50.5629 36.7665 49.5785 37.0421 48.791C37.3571 47.9641 37.7706 47.2357 38.2825 46.6057H39.1093C38.4793 47.1569 38.0265 48.1807 37.7509 49.6769C37.5146 51.1732 37.3965 53.2404 37.3965 55.8785C37.3965 56.8235 36.6287 57.8866 35.0931 59.0679C33.5968 60.2097 31.6871 61.1941 29.364 62.021C27.0803 62.8085 24.8359 63.2022 22.6309 63.2022ZM65.1979 48.6729C64.6466 49.1847 64.2726 49.9919 64.0757 51.0944C63.9182 52.1969 63.8394 53.831 63.8394 55.9966V62.021H40.2735V60.5444C41.0216 60.7807 41.7107 60.8988 42.3407 60.8988C43.0888 60.8988 43.6598 60.7019 44.0535 60.3082C44.4866 59.8751 44.7032 59.2647 44.7032 58.4772V21.8585C44.7032 21.071 44.4866 20.4804 44.0535 20.0866C43.6598 19.6535 43.0888 19.4369 42.3407 19.4369C41.7107 19.4369 41.0216 19.5551 40.2735 19.7913V18.3147H53.5626V19.7913C52.8144 19.5551 52.1254 19.4369 51.4954 19.4369C50.7473 19.4369 50.1566 19.6535 49.7235 20.0866C49.3298 20.4804 49.1329 21.071 49.1329 21.8585V54.6382C49.1329 56.9613 49.5266 58.6741 50.3141 59.7766C51.1016 60.8791 52.4798 61.4304 54.4485 61.4304C56.6535 61.4304 58.3073 61.1351 59.4098 60.5444C60.5123 59.9144 61.2407 59.1466 61.5951 58.241C61.9494 57.296 62.2448 55.9769 62.481 54.2838C62.6385 52.9844 62.8157 51.9213 63.0126 51.0944C63.2094 50.2676 63.5638 49.4604 64.0757 48.6729H65.1979ZM96.4369 59.6585C96.7125 60.6822 97.4212 61.1941 98.5631 61.1941C99.3112 61.1941 100.296 60.9776 101.516 60.5444V62.021H87.2822V60.5444C88.4241 60.9382 89.4084 61.1351 90.2353 61.1351C91.1803 61.1351 91.6528 60.8004 91.6528 60.131C91.6528 59.9341 91.6331 59.7766 91.5937 59.6585L86.2781 42.8257H73.7569C72.3394 47.5507 70.9809 52.2757 69.6816 57.0007L69.2681 58.4772C69.1894 58.7135 69.15 59.0088 69.15 59.3632C69.15 60.5051 69.8587 61.076 71.2762 61.076C72.0637 61.076 72.9694 60.8988 73.9931 60.5444V62.021H61.6491V60.5444C62.5941 60.8988 63.4997 61.076 64.3659 61.076C65.5472 61.076 66.3937 60.6035 66.9056 59.6585C67.1812 59.1072 67.4175 58.5363 67.6144 57.9457L80.1356 17.1335H83.5612L96.4369 59.6585ZM74.0522 41.7626H85.9237L79.7812 22.3901L74.0522 41.7626ZM114.378 63.2022C111.504 63.2022 109.2 62.7297 107.468 61.7847C105.775 60.8004 104.298 59.3435 103.038 57.4141L102.211 60.8988H101.03V44.8338H102.625C102.625 50.1888 103.55 54.4216 105.401 57.5322C107.291 60.6429 110.086 62.1982 113.787 62.1982C115.52 62.1982 117.036 61.7257 118.335 60.7807C119.635 59.7963 120.619 58.5166 121.288 56.9416C121.958 55.3666 122.292 53.6932 122.292 51.9213C122.292 49.7557 121.8 47.9641 120.816 46.5466C119.871 45.0897 118.69 43.9479 117.272 43.121C115.855 42.2941 113.984 41.3885 111.661 40.4041C109.259 39.3804 107.35 38.4551 105.932 37.6282C104.515 36.7619 103.314 35.6201 102.329 34.2026C101.384 32.7457 100.912 30.9147 100.912 28.7097C100.912 26.5047 101.424 24.5163 102.447 22.7444C103.511 20.9726 104.928 19.5944 106.7 18.6101C108.511 17.6257 110.539 17.1335 112.783 17.1335C114.161 17.1335 115.52 17.3697 116.859 17.8422C118.237 18.3147 119.398 18.9251 120.343 19.6732C121.288 20.3819 121.859 21.0907 122.056 21.7994L122.706 17.2516H123.828V29.0051H122.47C122.47 27.2332 122.155 25.5401 121.525 23.9257C120.895 22.3113 119.91 20.9922 118.571 19.9685C117.272 18.9447 115.658 18.4329 113.728 18.4329C111.248 18.4329 109.22 19.2597 107.645 20.9135C106.109 22.5672 105.341 24.8707 105.341 27.8238C105.341 29.5169 105.775 30.9541 106.641 32.1354C107.507 33.2772 108.57 34.2222 109.83 34.9704C111.13 35.7185 112.862 36.5847 115.028 37.5691C117.548 38.711 119.576 39.7741 121.111 40.7585C122.686 41.7035 124.005 43.0029 125.068 44.6566C126.171 46.271 126.722 48.2988 126.722 50.7401C126.722 52.7088 126.151 54.6776 125.009 56.6463C123.867 58.5757 122.351 60.1507 120.461 61.3713C118.571 62.5919 116.544 63.2022 114.378 63.2022ZM143.739 63.2022C140.864 63.2022 138.561 62.7297 136.828 61.7847C135.135 60.8004 133.659 59.3435 132.399 57.4141L131.572 60.8988H130.39V44.8338H131.985C131.985 50.1888 132.91 54.4216 134.761 57.5322C136.651 60.6429 139.447 62.1982 143.148 62.1982C144.88 62.1982 146.396 61.7257 147.696 60.7807C148.995 59.7963 149.979 58.5166 150.649 56.9416C151.318 55.3666 151.653 53.6932 151.653 51.9213C151.653 49.7557 151.161 47.9641 150.176 46.5466C149.231 45.0897 148.05 43.9479 146.633 43.121C145.215 42.2941 143.345 41.3885 141.022 40.4041C138.62 39.3804 136.71 38.4551 135.293 37.6282C133.875 36.7619 132.674 35.6201 131.69 34.2026C130.745 32.7457 130.272 30.9147 130.272 28.7097C130.272 26.5047 130.784 24.5163 131.808 22.7444C132.871 20.9726 134.289 19.5944 136.06 18.6101C137.872 17.6257 139.899 17.1335 142.144 17.1335C143.522 17.1335 144.88 17.3697 146.219 17.8422C147.597 18.3147 148.759 18.9251 149.704 19.6732C150.649 20.3819 151.22 21.0907 151.417 21.7994L152.066 17.2516H153.189V29.0051H151.83C151.83 27.2332 151.515 25.5401 150.885 23.9257C150.255 22.3113 149.271 20.9922 147.932 19.9685C146.633 18.9447 145.018 18.4329 143.089 18.4329C140.608 18.4329 138.58 19.2597 137.005 20.9135C135.47 22.5672 134.702 24.8707 134.702 27.8238C134.702 29.5169 135.135 30.9541 136.001 32.1354C136.868 33.2772 137.931 34.2222 139.191 34.9704C140.49 35.7185 142.223 36.5847 144.388 37.5691C146.908 38.711 148.936 39.7741 150.472 40.7585C152.047 41.7035 153.366 43.0029 154.429 44.6566C155.531 46.271 156.083 48.2988 156.083 50.7401C156.083 52.7088 155.512 54.6776 154.37 56.6463C153.228 58.5757 151.712 60.1507 149.822 61.3713C147.932 62.5919 145.904 63.2022 143.739 63.2022ZM159.042 60.5444C159.79 60.7807 160.479 60.8988 161.109 60.8988C161.858 60.8988 162.428 60.7019 162.822 60.3082C163.255 59.8751 163.472 59.2647 163.472 58.4772V21.8585C163.472 21.071 163.255 20.4804 162.822 20.0866C162.428 19.6535 161.858 19.4369 161.109 19.4369C160.479 19.4369 159.79 19.5551 159.042 19.7913V18.3147H172.331V19.7913C171.583 19.5551 170.894 19.4369 170.264 19.4369C169.516 19.4369 168.925 19.6535 168.492 20.0866C168.098 20.4804 167.902 21.071 167.902 21.8585V58.4772C167.902 59.2647 168.098 59.8751 168.492 60.3082C168.925 60.7019 169.516 60.8988 170.264 60.8988C170.894 60.8988 171.583 60.7807 172.331 60.5444V62.021H159.042V60.5444ZM179.991 62.6116C179.243 62.6116 178.554 62.3557 177.924 61.8438C177.333 61.3319 177.038 60.7019 177.038 59.9538C177.038 59.2451 177.333 58.6347 177.924 58.1229C178.554 57.5716 179.243 57.296 179.991 57.296C180.739 57.296 181.408 57.5716 181.999 58.1229C182.629 58.6347 182.944 59.2451 182.944 59.9538C182.944 60.7019 182.629 61.3319 181.999 61.8438C181.408 62.3557 180.739 62.6116 179.991 62.6116Z" fill="white"/>
</svg>
