<svg width="12" height="12" viewBox="0 0 12 12" fill="none" xmlns="http://www.w3.org/2000/svg">
<path d="M10.3701 0.684081H1.4834C1.19857 0.684081 0.956462 0.783772 0.75708 0.983153C0.557699 1.18253 0.458008 1.42464 0.458008 1.70947V10.5962C0.458008 10.881 0.557699 11.1231 0.75708 11.3225C0.956462 11.5219 1.19857 11.6216 1.4834 11.6216H10.3701C10.6549 11.6216 10.8971 11.5219 11.0964 11.3225C11.2958 11.1231 11.3955 10.881 11.3955 10.5962V1.70947C11.3955 1.42464 11.2958 1.18253 11.0964 0.983153C10.8971 0.783772 10.6549 0.684081 10.3701 0.684081ZM7.97754 2.39307C7.97754 2.3005 8.00958 2.22217 8.07367 2.15808C8.14488 2.08687 8.22677 2.05127 8.31934 2.05127H9.68652C9.77909 2.05127 9.85742 2.08687 9.92151 2.15808C9.99272 2.22217 10.0283 2.3005 10.0283 2.39307V3.76025C10.0283 3.85282 9.99272 3.93471 9.92151 4.00592C9.85742 4.07001 9.77909 4.10205 9.68652 4.10205H8.31934C8.22677 4.10205 8.14488 4.07001 8.07367 4.00592C8.00958 3.93471 7.97754 3.85282 7.97754 3.76025V2.39307ZM5.92676 4.10205C6.4893 4.10205 6.96995 4.30143 7.36871 4.70019C7.7746 5.09896 7.97754 5.58317 7.97754 6.15283C7.97754 6.71537 7.77816 7.19958 7.3794 7.60547C6.98063 8.00423 6.49642 8.20361 5.92676 8.20361C5.36422 8.20361 4.88001 8.00423 4.47412 7.60547C4.07536 7.20671 3.87598 6.72249 3.87598 6.15283C3.87598 5.59029 4.07536 5.10964 4.47412 4.71088C4.87288 4.30499 5.3571 4.10205 5.92676 4.10205ZM10.0283 9.9126C10.0283 10.0052 9.99272 10.0871 9.92151 10.1583C9.85742 10.2224 9.77909 10.2544 9.68652 10.2544H2.16699C2.07442 10.2544 1.99253 10.2224 1.92133 10.1583C1.85724 10.0871 1.8252 10.0052 1.8252 9.9126V5.46924H2.57288C2.55151 5.57605 2.53371 5.68642 2.51947 5.80035C2.51235 5.91429 2.50879 6.03178 2.50879 6.15283C2.50879 6.6228 2.5978 7.06785 2.77582 7.48798C2.95384 7.90098 3.19594 8.26414 3.50214 8.57745C3.81545 8.88365 4.17861 9.12575 4.59161 9.30377C5.01174 9.48179 5.45679 9.5708 5.92676 9.5708C6.39673 9.5708 6.83822 9.48179 7.25122 9.30377C7.67135 9.12575 8.03451 8.88365 8.3407 8.57745C8.65401 8.26414 8.89968 7.90098 9.0777 7.48798C9.25572 7.06785 9.34473 6.6228 9.34473 6.15283C9.34473 6.0389 9.33761 5.92497 9.32337 5.81103C9.31624 5.68998 9.302 5.57605 9.28064 5.46924H10.0283V9.9126Z" fill="#A5A5A5"/>
</svg>
