<svg width="13" height="11" viewBox="0 0 13 11" fill="none" xmlns="http://www.w3.org/2000/svg">
<path d="M12.5159 1.81494C12.2083 2.29346 11.7981 2.7207 11.2854 3.09668V3.4043C11.2854 5.19873 10.636 6.83081 9.33716 8.30054C8.05542 9.75317 6.34644 10.4795 4.21021 10.4795C2.84302 10.4795 1.57837 10.1035 0.41626 9.35156C0.689697 9.38574 0.886231 9.40283 1.00586 9.40283C2.15088 9.40283 3.17627 9.04395 4.08203 8.32617C3.55225 8.30908 3.07373 8.14673 2.64648 7.83911C2.21924 7.5144 1.92871 7.10425 1.7749 6.60864C1.97998 6.64282 2.13379 6.65991 2.23633 6.65991C2.40723 6.65991 2.62939 6.62573 2.90283 6.55737C2.33887 6.43774 1.86035 6.15576 1.46729 5.71143C1.09131 5.25 0.90332 4.72021 0.90332 4.12207V4.09644C1.2793 4.30151 1.65527 4.40405 2.03125 4.40405C1.29639 3.92554 0.928955 3.2334 0.928955 2.32764C0.928955 1.90039 1.04004 1.49023 1.26221 1.09717C2.57813 2.7207 4.27856 3.58374 6.36353 3.68628C6.32935 3.56665 6.31226 3.37866 6.31226 3.12231C6.31226 2.42163 6.55151 1.83203 7.03003 1.35351C7.50855 0.874999 8.09815 0.635741 8.79883 0.635741C9.49951 0.635741 10.0977 0.900634 10.5933 1.43042C11.106 1.34497 11.6357 1.13989 12.1826 0.815185C12.0117 1.41333 11.6443 1.87476 11.0803 2.19946C11.6101 2.14819 12.0886 2.02002 12.5159 1.81494Z" fill="#A5A5A5"/>
</svg>
