<svg width="14" height="11" viewBox="0 0 14 11" fill="none" xmlns="http://www.w3.org/2000/svg">
<path d="M13.0686 2.8147C13.1199 3.73755 13.1455 4.65186 13.1455 5.55762C13.1455 6.46338 13.1199 7.37769 13.0686 8.30054C13.0686 8.88159 12.8806 9.3772 12.5046 9.78735C12.1458 10.1804 11.7014 10.377 11.1716 10.377C9.85571 10.4453 8.32617 10.4795 6.58301 10.4795C4.83984 10.4795 3.3103 10.4453 1.99438 10.377C1.4646 10.377 1.01172 10.1804 0.635742 9.78735C0.276855 9.3772 0.0974121 8.88159 0.0974121 8.30054C0.0461426 7.37769 0.0205078 6.46338 0.0205078 5.55762C0.0205078 4.95947 0.0546875 4.04517 0.123047 2.8147C0.123047 2.23364 0.30249 1.74658 0.661377 1.35351C1.02026 0.943359 1.4646 0.738281 1.99438 0.738281C3.24194 0.669921 4.69458 0.635741 6.3523 0.635741H6.58301H6.81372C8.47144 0.635741 9.92407 0.669921 11.1716 0.738281C11.7014 0.738281 12.1458 0.943359 12.5046 1.35351C12.8806 1.74658 13.0686 2.23364 13.0686 2.8147ZM5.3269 8.06982L9.04395 5.55762L5.3269 3.01977V8.06982Z" fill="#A5A5A5"/>
</svg>
