<svg width="12" height="13" viewBox="0 0 12 13" fill="none" xmlns="http://www.w3.org/2000/svg">
<path d="M2.10339 2.50732C3.23132 1.37939 4.58997 0.815429 6.17932 0.815429C7.76868 0.815429 9.11878 1.37939 10.2296 2.50732C11.3575 3.61816 11.9215 4.96826 11.9215 6.55762C11.9215 8.14697 11.3575 9.50562 10.2296 10.6335C9.11878 11.7444 7.76868 12.2998 6.17932 12.2998C5.59827 12.2998 5.05139 12.2229 4.5387 12.0691C4.84631 11.5222 5.04285 11.1121 5.1283 10.8386L5.53845 9.24927C5.7948 9.72778 6.25623 9.96704 6.92273 9.96704C7.84558 9.96704 8.58899 9.59961 9.15295 8.86475C9.73401 8.12988 10.0245 7.18994 10.0245 6.04492C10.0245 5.15625 9.68274 4.38721 8.99915 3.73779C8.31555 3.07129 7.44397 2.73804 6.3844 2.73804C5.11975 2.73804 4.12 3.11401 3.38513 3.86597C2.65027 4.60083 2.28284 5.42114 2.28284 6.3269C2.28284 7.47192 2.6759 8.20679 3.46204 8.53149C3.61584 8.59985 3.71838 8.54858 3.76965 8.37769C3.76965 8.34351 3.7782 8.2666 3.79529 8.14697C3.82947 8.02734 3.8551 7.95044 3.87219 7.91626C3.90637 7.81372 3.88074 7.71118 3.79529 7.60864C3.53894 7.30103 3.41077 6.92505 3.41077 6.48071C3.41077 5.72876 3.66711 5.08789 4.17981 4.5581C4.7096 4.01123 5.39319 3.73779 6.23059 3.73779C6.98254 3.73779 7.57214 3.94287 7.99939 4.35303C8.42664 4.74609 8.64026 5.26733 8.64026 5.91675C8.64026 6.77124 8.46936 7.49756 8.12756 8.0957C7.78577 8.67676 7.34998 8.96728 6.82019 8.96728C6.51257 8.96728 6.26477 8.86475 6.07678 8.65967C5.88879 8.4375 5.82898 8.17261 5.89734 7.86499C5.93152 7.69409 5.99133 7.46338 6.07678 7.17285C6.17932 6.88232 6.25623 6.62598 6.3075 6.40381C6.37585 6.18164 6.41003 5.99365 6.41003 5.83984C6.41003 5.60059 6.34168 5.39551 6.20496 5.22461C6.06824 5.05371 5.88025 4.96826 5.64099 4.96826C5.33337 4.96826 5.06848 5.11352 4.84631 5.40405C4.64124 5.67749 4.5387 6.02783 4.5387 6.45508C4.5387 6.60889 4.55579 6.76269 4.58997 6.9165C4.62415 7.07031 4.65833 7.18994 4.69251 7.27539L4.71814 7.37793C4.29089 9.15527 4.04309 10.1978 3.97473 10.5054C3.87219 10.9155 3.83801 11.3513 3.87219 11.8127C2.8468 11.3513 2.01794 10.6506 1.38562 9.71069C0.753296 8.77075 0.437134 7.71973 0.437134 6.55762C0.437134 4.96826 0.992554 3.61816 2.10339 2.50732Z" fill="#A5A5A5"/>
</svg>
