<svg width="72" height="33" viewBox="0 0 72 33" fill="none" xmlns="http://www.w3.org/2000/svg">
<path d="M8.58959 25.0356C7.30868 25.0356 6.08806 24.6362 4.92771 23.8376C3.78243 23.0238 2.86319 21.9388 2.17 20.5826C1.47681 19.2263 1.13021 17.7721 1.13021 16.22C1.13021 14.5322 1.46174 13.0177 2.12479 11.6765C2.78785 10.3353 3.69201 9.28801 4.83729 8.53453C5.98257 7.78106 7.25594 7.40433 8.6574 7.40433C9.44101 7.40433 10.3376 7.6153 11.3473 8.03724C12.372 8.45919 13.0878 8.94141 13.4947 9.48391L13.8338 7.7886H14.218V12.8293H13.7433C13.7433 12.0457 13.5022 11.2696 13.02 10.5011C12.5528 9.73256 11.9049 9.09964 11.076 8.60235C10.2472 8.10506 9.33552 7.85641 8.34094 7.85641C7.31622 7.85641 6.40452 8.21808 5.60583 8.94141C4.80715 9.66474 4.18177 10.6593 3.72969 11.9252C3.2776 13.1759 3.05156 14.5774 3.05156 16.1295C3.05156 17.6214 3.27007 19.0153 3.70708 20.3113C4.15917 21.5922 4.83729 22.6245 5.74146 23.4081C6.6607 24.1917 7.77583 24.5835 9.08688 24.5835C10.0513 24.5835 10.9329 24.3047 11.7316 23.7471C12.5302 23.1896 13.1255 22.4662 13.5173 21.5771C13.5625 21.4717 13.6529 21.1627 13.7885 20.6504C13.894 20.1983 13.9995 19.8216 14.105 19.5202C14.2256 19.2037 14.3838 18.9249 14.5797 18.6838H14.8961C14.655 18.8948 14.4817 19.2866 14.3763 19.8592C14.2858 20.4319 14.2406 21.223 14.2406 22.2327C14.2406 22.5943 13.9468 23.0012 13.3591 23.4533C12.7864 23.8903 12.0556 24.267 11.1665 24.5835C10.2924 24.8849 9.43347 25.0356 8.58959 25.0356ZM24.8807 19.475C24.6697 19.6709 24.5265 19.9798 24.4512 20.4017C24.3909 20.8237 24.3608 21.4491 24.3608 22.2779V24.5835H15.3417V24.0184C15.628 24.1088 15.8917 24.154 16.1328 24.154C16.4192 24.154 16.6377 24.0787 16.7884 23.928C16.9541 23.7622 17.037 23.5286 17.037 23.2272V9.21266C17.037 8.91127 16.9541 8.68523 16.7884 8.53453C16.6377 8.36877 16.4192 8.28589 16.1328 8.28589C15.8917 8.28589 15.628 8.3311 15.3417 8.42151V7.85641H20.4276V8.42151C20.1413 8.3311 19.8776 8.28589 19.6365 8.28589C19.3502 8.28589 19.1241 8.36877 18.9584 8.53453C18.8077 8.68523 18.7323 8.91127 18.7323 9.21266V21.758C18.7323 22.6471 18.883 23.3026 19.1844 23.7245C19.4858 24.1465 20.0132 24.3575 20.7667 24.3575C21.6106 24.3575 22.2435 24.2444 22.6654 24.0184C23.0874 23.7773 23.3662 23.4834 23.5018 23.1368C23.6374 22.7752 23.7504 22.2703 23.8409 21.6223C23.9011 21.1251 23.969 20.7182 24.0443 20.4017C24.1197 20.0853 24.2553 19.7763 24.4512 19.475H24.8807ZM36.8363 23.6793C36.9418 24.0711 37.2131 24.267 37.6501 24.267C37.9364 24.267 38.3131 24.1842 38.7803 24.0184V24.5835H33.3327V24.0184C33.7697 24.1691 34.1464 24.2444 34.4629 24.2444C34.8246 24.2444 35.0054 24.1163 35.0054 23.8602C35.0054 23.7848 34.9978 23.7245 34.9828 23.6793L32.9484 17.2371H28.1563C27.6138 19.0455 27.0939 20.8538 26.5966 22.6621L26.4384 23.2272C26.4083 23.3177 26.3932 23.4307 26.3932 23.5663C26.3932 24.0033 26.6644 24.2218 27.2069 24.2218C27.5083 24.2218 27.8549 24.154 28.2467 24.0184V24.5835H23.5225V24.0184C23.8841 24.154 24.2307 24.2218 24.5623 24.2218C25.0143 24.2218 25.3383 24.041 25.5342 23.6793C25.6397 23.4684 25.7301 23.2499 25.8055 23.0238L30.5976 7.40433H31.9086L36.8363 23.6793ZM28.2693 16.8303H32.8128L30.4619 9.4161L28.2693 16.8303ZM43.7027 25.0356C42.6026 25.0356 41.7211 24.8547 41.058 24.4931C40.41 24.1163 39.8449 23.5588 39.3627 22.8204L39.0462 24.154H38.5941V18.0057H39.2045C39.2045 20.0551 39.5586 21.6751 40.2669 22.8656C40.9902 24.0561 42.0601 24.6513 43.4766 24.6513C44.1397 24.6513 44.7199 24.4705 45.2172 24.1088C45.7145 23.7321 46.0912 23.2423 46.3474 22.6395C46.6036 22.0368 46.7317 21.3963 46.7317 20.7182C46.7317 19.8894 46.5433 19.2037 46.1665 18.6612C45.8049 18.1036 45.3528 17.6666 44.8103 17.3502C44.2678 17.0337 43.552 16.6871 42.6629 16.3104C41.7437 15.9186 41.0128 15.5644 40.4703 15.248C39.9278 14.9164 39.4682 14.4794 39.0914 13.9369C38.7298 13.3794 38.5489 12.6786 38.5489 11.8347C38.5489 10.9909 38.7448 10.2298 39.1366 9.55172C39.5435 8.8736 40.086 8.34617 40.7641 7.96943C41.4573 7.59269 42.2334 7.40433 43.0924 7.40433C43.6198 7.40433 44.1397 7.49474 44.6521 7.67558C45.1795 7.85641 45.624 8.08999 45.9857 8.37631C46.3474 8.64756 46.5659 8.91881 46.6412 9.19006L46.8899 7.44953H47.3194V11.9478H46.7995C46.7995 11.2696 46.6789 10.6217 46.4378 10.0038C46.1967 9.38596 45.8199 8.88113 45.3076 8.48933C44.8103 8.09752 44.1924 7.90162 43.454 7.90162C42.5047 7.90162 41.7286 8.21808 41.1258 8.85099C40.5381 9.48391 40.2443 10.3655 40.2443 11.4957C40.2443 12.1437 40.41 12.6937 40.7415 13.1458C41.0731 13.5828 41.4799 13.9445 41.9622 14.2308C42.4595 14.5171 43.1225 14.8486 43.9513 15.2254C44.9158 15.6624 45.6919 16.0693 46.2796 16.446C46.8823 16.8077 47.3872 17.305 47.794 17.9379C48.216 18.5557 48.427 19.3318 48.427 20.2661C48.427 21.0196 48.2085 21.773 47.7714 22.5265C47.3344 23.2649 46.7543 23.8677 46.0309 24.3349C45.3076 24.802 44.5315 25.0356 43.7027 25.0356ZM54.9394 25.0356C53.8394 25.0356 52.9578 24.8547 52.2947 24.4931C51.6468 24.1163 51.0817 23.5588 50.5994 22.8204L50.283 24.154H49.8309V18.0057H50.4412C50.4412 20.0551 50.7953 21.6751 51.5036 22.8656C52.2269 24.0561 53.2969 24.6513 54.7134 24.6513C55.3764 24.6513 55.9566 24.4705 56.4539 24.1088C56.9512 23.7321 57.3279 23.2423 57.5841 22.6395C57.8403 22.0368 57.9684 21.3963 57.9684 20.7182C57.9684 19.8894 57.78 19.2037 57.4033 18.6612C57.0416 18.1036 56.5895 17.6666 56.047 17.3502C55.5045 17.0337 54.7887 16.6871 53.8996 16.3104C52.9804 15.9186 52.2495 15.5644 51.707 15.248C51.1645 14.9164 50.7049 14.4794 50.3282 13.9369C49.9665 13.3794 49.7857 12.6786 49.7857 11.8347C49.7857 10.9909 49.9816 10.2298 50.3734 9.55172C50.7803 8.8736 51.3228 8.34617 52.0009 7.96943C52.6941 7.59269 53.4702 7.40433 54.3291 7.40433C54.8566 7.40433 55.3764 7.49474 55.8888 7.67558C56.4162 7.85641 56.8608 8.08999 57.2225 8.37631C57.5841 8.64756 57.8026 8.91881 57.878 9.19006L58.1266 7.44953H58.5561V11.9478H58.0362C58.0362 11.2696 57.9157 10.6217 57.6745 10.0038C57.4334 9.38596 57.0567 8.88113 56.5443 8.48933C56.047 8.09752 55.4292 7.90162 54.6908 7.90162C53.7414 7.90162 52.9653 8.21808 52.3626 8.85099C51.7749 9.48391 51.481 10.3655 51.481 11.4957C51.481 12.1437 51.6468 12.6937 51.9783 13.1458C52.3098 13.5828 52.7167 13.9445 53.1989 14.2308C53.6962 14.5171 54.3593 14.8486 55.1881 15.2254C56.1525 15.6624 56.9286 16.0693 57.5163 16.446C58.1191 16.8077 58.6239 17.305 59.0308 17.9379C59.4527 18.5557 59.6637 19.3318 59.6637 20.2661C59.6637 21.0196 59.4452 21.773 59.0082 22.5265C58.5712 23.2649 57.991 23.8677 57.2677 24.3349C56.5443 24.802 55.7683 25.0356 54.9394 25.0356ZM60.7964 24.0184C61.0827 24.1088 61.3464 24.154 61.5875 24.154C61.8739 24.154 62.0924 24.0787 62.2431 23.928C62.4088 23.7622 62.4917 23.5286 62.4917 23.2272V9.21266C62.4917 8.91127 62.4088 8.68523 62.2431 8.53453C62.0924 8.36877 61.8739 8.28589 61.5875 8.28589C61.3464 8.28589 61.0827 8.3311 60.7964 8.42151V7.85641H65.8823V8.42151C65.596 8.3311 65.3323 8.28589 65.0912 8.28589C64.8049 8.28589 64.5788 8.36877 64.4131 8.53453C64.2624 8.68523 64.187 8.91127 64.187 9.21266V23.2272C64.187 23.5286 64.2624 23.7622 64.4131 23.928C64.5788 24.0787 64.8049 24.154 65.0912 24.154C65.3323 24.154 65.596 24.1088 65.8823 24.0184V24.5835H60.7964V24.0184ZM68.8138 24.8095C68.5275 24.8095 68.2638 24.7116 68.0227 24.5157C67.7966 24.3198 67.6836 24.0787 67.6836 23.7924C67.6836 23.5211 67.7966 23.2875 68.0227 23.0916C68.2638 22.8806 68.5275 22.7752 68.8138 22.7752C69.1001 22.7752 69.3563 22.8806 69.5823 23.0916C69.8235 23.2875 69.944 23.5211 69.944 23.7924C69.944 24.0787 69.8235 24.3198 69.5823 24.5157C69.3563 24.7116 69.1001 24.8095 68.8138 24.8095Z" fill="white"/>
</svg>
