<svg width="13" height="15" viewBox="0 0 13 15" fill="none" xmlns="http://www.w3.org/2000/svg">
<path d="M9.14583 3.93754C9.14583 4.71109 8.83854 5.45296 8.29156 5.99994C7.74458 6.54692 7.00271 6.85421 6.22917 6.85421C5.45562 6.85421 4.71375 6.54692 4.16677 5.99994C3.61979 5.45296 3.3125 4.71109 3.3125 3.93754C3.3125 3.16399 3.61979 2.42213 4.16677 1.87515C4.71375 1.32816 5.45562 1.02087 6.22917 1.02087C7.00271 1.02087 7.74458 1.32816 8.29156 1.87515C8.83854 2.42213 9.14583 3.16399 9.14583 3.93754V3.93754ZM6.22917 9.04171C4.87546 9.04171 3.57719 9.57947 2.61998 10.5367C1.66276 11.4939 1.125 12.7922 1.125 14.1459H11.3333C11.3333 12.7922 10.7956 11.4939 9.83836 10.5367C8.88114 9.57947 7.58288 9.04171 6.22917 9.04171V9.04171Z" stroke="white" stroke-width="1.45833" stroke-linecap="round" stroke-linejoin="round"/>
</svg>
