<svg width="16" height="13" viewBox="0 0 16 13" fill="none" xmlns="http://www.w3.org/2000/svg">
<path d="M2.50282 1.98182C2.19812 2.28651 1.95642 2.64824 1.79152 3.04634C1.62662 3.44444 1.54175 3.87113 1.54175 4.30203C1.54175 4.73293 1.62662 5.15962 1.79152 5.55772C1.95642 5.95582 2.19812 6.31755 2.50282 6.62224L8.10428 12.2237L13.7057 6.62224C14.3211 6.00688 14.6668 5.17228 14.6668 4.30203C14.6668 3.43178 14.3211 2.59718 13.7057 1.98182C13.0904 1.36646 12.2558 1.02076 11.3855 1.02076C10.5153 1.02076 9.68068 1.36646 9.06532 1.98182L8.10428 2.94286L7.14323 1.98182C6.83854 1.67713 6.47682 1.43543 6.07872 1.27053C5.68061 1.10563 5.25393 1.02075 4.82303 1.02075C4.39212 1.02075 3.96544 1.10563 3.56734 1.27053C3.16923 1.43543 2.80751 1.67713 2.50282 1.98182V1.98182Z" stroke="white" stroke-width="1.45833" stroke-linecap="round" stroke-linejoin="round"/>
</svg>
